<svg width="28" height="28" viewBox="0 0 28 28" fill="none" xmlns="http://www.w3.org/2000/svg">
<path d="M14 2C11.6266 2 9.30655 2.70379 7.33316 4.02236C5.35977 5.34094 3.8217 7.21509 2.91345 9.4078C2.0052 11.6005 1.76756 14.0133 2.23058 16.3411C2.6936 18.6689 3.83649 20.8071 5.51472 22.4853C7.19295 24.1635 9.33115 25.3064 11.6589 25.7694C13.9867 26.2324 16.3995 25.9948 18.5922 25.0866C20.7849 24.1783 22.6591 22.6402 23.9776 20.6668C25.2962 18.6935 26 16.3734 26 14C26 10.8174 24.7357 7.76515 22.4853 5.51472C20.2348 3.26428 17.1826 2 14 2ZM8.084 21.536C8.6 20.456 11.744 19.4 14 19.4C16.256 19.4 19.412 20.456 19.916 21.536C18.2338 22.8726 16.1486 23.6001 14 23.6001C11.8515 23.6001 9.76622 22.8726 8.084 21.536ZM21.632 19.8C19.916 17.708 15.752 17 14 17C12.248 17 8.08401 17.708 6.36801 19.8C5.28242 18.3773 4.61613 16.6794 4.44434 14.8981C4.27255 13.1168 4.6021 11.3229 5.39579 9.71892C6.18948 8.11495 7.41571 6.76477 8.93608 5.82078C10.4564 4.87678 12.2104 4.37655 14 4.37655C15.7896 4.37655 17.5436 4.87678 19.0639 5.82078C20.5843 6.76477 21.8105 8.11495 22.6042 9.71892C23.3979 11.3229 23.7275 13.1168 23.5557 14.8981C23.3839 16.6794 22.7176 18.3773 21.632 19.8ZM14 6.8C13.1693 6.8 12.3573 7.04633 11.6666 7.50783C10.9759 7.96933 10.4376 8.62528 10.1197 9.39273C9.80182 10.1602 9.71865 11.0047 9.88071 11.8194C10.0428 12.6341 10.4428 13.3825 11.0302 13.9698C11.6175 14.5572 12.3659 14.9572 13.1806 15.1193C13.9953 15.2814 14.8398 15.1982 15.6073 14.8803C16.3747 14.5624 17.0307 14.0241 17.4922 13.3334C17.9537 12.6427 18.2 11.8307 18.2 11C18.2015 10.448 18.0938 9.90124 17.8833 9.39101C17.6727 8.88079 17.3634 8.41721 16.9731 8.02692C16.5828 7.63662 16.1192 7.32731 15.609 7.11675C15.0988 6.90619 14.552 6.79855 14 6.8ZM14 12.8C13.644 12.8 13.296 12.6944 13 12.4966C12.704 12.2989 12.4733 12.0177 12.337 11.6888C12.2008 11.3599 12.1651 10.998 12.2346 10.6488C12.304 10.2997 12.4755 9.97894 12.7272 9.72721C12.9789 9.47547 13.2997 9.30404 13.6488 9.23459C13.998 9.16513 14.3599 9.20078 14.6888 9.33702C15.0177 9.47325 15.2989 9.70396 15.4967 9.99997C15.6944 10.296 15.8 10.644 15.8 11C15.8 11.4774 15.6104 11.9352 15.2728 12.2728C14.9352 12.6104 14.4774 12.8 14 12.8Z" fill="white"/>
</svg>
