<svg width="42" height="42" viewBox="0 0 42 42" fill="none" xmlns="http://www.w3.org/2000/svg">
<path d="M21 42C32.598 42 42 32.598 42 21C42 9.40202 32.598 0 21 0C9.40202 0 0 9.40202 0 21C0 32.598 9.40202 42 21 42Z" fill="white"/>
<g clip-path="url(#clip0_1_790)">
<path d="M21 24.9336C22.6201 24.9336 23.9334 23.6203 23.9334 22.0003C23.9334 20.3803 22.6201 19.067 21 19.067C19.38 19.067 18.0667 20.3803 18.0667 22.0003C18.0667 23.6203 19.38 24.9336 21 24.9336Z" fill="#2089FF"/>
<path d="M18.25 12.8333L16.5725 14.6667H13.6666C12.6583 14.6667 11.8333 15.4917 11.8333 16.5V27.5C11.8333 28.5083 12.6583 29.3333 13.6666 29.3333H28.3333C29.3416 29.3333 30.1666 28.5083 30.1666 27.5V16.5C30.1666 15.4917 29.3416 14.6667 28.3333 14.6667H25.4275L23.75 12.8333H18.25ZM21 26.5833C18.47 26.5833 16.4166 24.53 16.4166 22C16.4166 19.47 18.47 17.4167 21 17.4167C23.53 17.4167 25.5833 19.47 25.5833 22C25.5833 24.53 23.53 26.5833 21 26.5833Z" fill="#2089FF"/>
</g>
<defs>
<clipPath id="clip0_1_790">
<rect width="22" height="22" fill="white" transform="translate(10 11)"/>
</clipPath>
</defs>
</svg>
