<svg width="28" height="28" viewBox="0 0 28 28" fill="none" xmlns="http://www.w3.org/2000/svg">
<path d="M14 26C14.6505 26.0096 15.2783 25.7617 15.7467 25.3102C16.215 24.8587 16.4858 24.2403 16.5 23.59H11.5C11.5142 24.2403 11.785 24.8587 12.2533 25.3102C12.7217 25.7617 13.3495 26.0096 14 26ZM21.5 18.769V12.744C21.5 9.04398 19.463 5.94398 15.875 5.12798V4.30798C15.8591 3.8213 15.6546 3.35987 15.3047 3.02121C14.9548 2.68256 14.4869 2.49323 14 2.49323C13.5131 2.49323 13.0452 2.68256 12.6953 3.02121C12.3454 3.35987 12.1409 3.8213 12.125 4.30798V5.12698C8.55 5.94698 6.5 9.03198 6.5 12.744V18.77L4 21.179V22.384H24V21.179L21.5 18.769ZM19 19.974H9V12.744C9 9.75498 10.888 7.32098 14 7.32098C17.112 7.32098 19 9.75498 19 12.744V19.974Z" fill="white"/>
</svg>
