<svg width="27" height="27" viewBox="0 0 27 27" fill="none" xmlns="http://www.w3.org/2000/svg">
<path d="M13.6506 0.75C11.1109 0.75 8.62831 1.50309 6.51667 2.91405C4.40503 4.325 2.7592 6.33044 1.78732 8.67677C0.815439 11.0231 0.561151 13.6049 1.05661 16.0958C1.55207 18.5866 2.77503 20.8746 4.57083 22.6704C6.36663 24.4662 8.65463 25.6892 11.1455 26.1846C13.6363 26.6801 16.2182 26.4258 18.5645 25.4539C20.9108 24.4821 22.9163 22.8362 24.3272 20.7246C25.7382 18.613 26.4913 16.1303 26.4913 13.5907C26.4901 10.1855 25.1369 6.92008 22.729 4.51223C20.3212 2.10439 17.0558 0.751161 13.6506 0.75ZM20.0714 14.8748H14.9347V20.0115H12.3664V14.8748H7.23066V12.3065H12.3673V7.17078H14.9356V12.3074H20.0722L20.0714 14.8748Z" fill="#2089FF"/>
</svg>
