<svg width="32" height="32" viewBox="0 0 32 32" fill="none" xmlns="http://www.w3.org/2000/svg">
<path d="M20.667 18.6673H19.614L19.241 18.3073C20.7053 16.6018 21.4517 14.3953 21.3237 12.1511C21.1957 9.90688 20.2031 7.79958 18.5544 6.27163C16.9057 4.74368 14.7292 3.91395 12.4817 3.95665C10.2343 3.99934 8.09081 4.91115 6.50135 6.50061C4.91188 8.09008 4.00008 10.2336 3.95738 12.481C3.91468 14.7284 4.74442 16.905 6.27236 18.5537C7.80031 20.2024 9.90761 21.1949 12.1518 21.323C14.396 21.451 16.6025 20.7045 18.308 19.2403L18.668 19.6133V20.6663L24.335 26.3333C24.5985 26.5968 24.9559 26.7448 25.3285 26.7448C25.7012 26.7448 26.0586 26.5968 26.322 26.3333C26.5855 26.0698 26.7336 25.7124 26.7336 25.3398C26.7336 24.9672 26.5855 24.6098 26.322 24.3463L20.667 18.6673ZM12.667 18.6673C11.4804 18.6673 10.3203 18.3154 9.33362 17.6561C8.34693 16.9968 7.57789 16.0598 7.12377 14.9634C6.66964 13.8671 6.55082 12.6607 6.78233 11.4968C7.01385 10.3329 7.58529 9.26379 8.42441 8.42467C9.26352 7.58556 10.3326 7.01411 11.4965 6.7826C12.6604 6.55109 13.8668 6.66991 14.9631 7.12404C16.0595 7.57816 16.9966 8.3472 17.6559 9.33389C18.3152 10.3206 18.667 11.4806 18.667 12.6673C18.6681 13.4555 18.5136 14.2362 18.2125 14.9647C17.9113 15.6931 17.4694 16.3549 16.912 16.9123C16.3547 17.4697 15.6928 17.9116 14.9644 18.2127C14.236 18.5139 13.4553 18.6684 12.667 18.6673Z" fill="#ECF8FF"/>
</svg>
